<?xml version="1.0" encoding="UTF-8"?>
<svg id="Layer_2" data-name="Layer 2" xmlns="http://www.w3.org/2000/svg" xmlns:xlink="http://www.w3.org/1999/xlink" viewBox="0 0 264.02 55.76">
  <defs>
    <style>
      .cls-1 {
        fill: #fff;
      }

      .cls-2 {
        fill: url(#linear-gradient);
      }

      .cls-3 {
        fill: #ef305e;
      }
    </style>
    <linearGradient id="linear-gradient" x1="27.05" y1="31.52" x2="38.55" y2="28.52" gradientTransform="translate(0 58) scale(1 -1)" gradientUnits="userSpaceOnUse">
      <stop offset="0" stop-color="#000" stop-opacity=".25"/>
      <stop offset=".91" stop-color="#fff" stop-opacity="0"/>
    </linearGradient>
  </defs>
  <g id="Layer_1-2" data-name="Layer 1">
    <path class="cls-3" d="m59.68,2.78l15.21,47.35c.83,2.58-1.1,5.22-3.81,5.22h-11.18c-1.74,0-3.28-1.13-3.81-2.79L41.05,5.21c-.82-2.58,1.11-5.21,3.81-5.21h11.01c1.74,0,3.28,1.12,3.81,2.78Z"/>
    <g>
      <path class="cls-1" d="m45.12,37.8L34.39,3.45c-.64-2.05-2.54-3.45-4.69-3.45-2.62,0-4.77,2.05-4.91,4.66l-1.31,25.68c-.05.91.06,1.83.33,2.7l5.82,19.46c.51,1.69,2.06,2.85,3.83,2.85h5.41c1.74,0,3.28-1.13,3.81-2.78l2.41-7.55c.75-2.35.76-4.87.02-7.22Z"/>
      <path class="cls-2" d="m45.12,37.8L34.39,3.45c-.64-2.05-2.54-3.45-4.69-3.45-2.62,0-4.77,2.05-4.91,4.66l-1.31,25.68c-.05.91.06,1.83.33,2.7l5.82,19.46c.51,1.69,2.06,2.85,3.83,2.85h5.41c1.74,0,3.28-1.13,3.81-2.78l2.41-7.55c.75-2.35.76-4.87.02-7.22Z"/>
    </g>
    <path class="cls-3" d="m18.88,0h11.01c2.7,0,4.62,2.61,3.82,5.19l-14.88,47.76c-.52,1.67-2.07,2.81-3.82,2.81H4c-2.7,0-4.62-2.61-3.82-5.19L15.06,2.81c.52-1.67,2.07-2.81,3.82-2.81Z"/>
    <g>
      <path class="cls-1" d="m88.71,23.53c-1.44,3.02-3.28,5.66-5.52,7.93l-2.38-1.76c3.36-3.32,5.55-7.21,6.57-11.67l3.26.51c-.44,1.27-.73,2.07-.86,2.38h8.73l.73,1.02c-1,6.19-2.9,10.93-5.73,14.23-2.18,2.56-5.24,4.65-9.2,6.25l-1.84-2.3c4.02-1.55,7.11-3.76,9.28-6.62,1.97-2.62,3.3-5.94,3.97-9.97h-7.03Z"/>
      <path class="cls-1" d="m108.53,24.75v-6.46h3.11v5.74l10.21-2.35,1.66,2.05c-.87,2.44-1.81,4.51-2.82,6.2-.86,1.43-1.96,2.91-3.29,4.45l-2.57-1.65c2.59-2.85,4.24-5.5,4.95-7.95l-8.13,1.9v9.89c0,.59.08,1,.25,1.25.2.29.6.5,1.19.61.57.1,1.51.15,2.82.15,2.54,0,4.83-.12,6.85-.37v3.07c-2.42.13-4.89.19-7.41.19-2.85,0-4.73-.4-5.64-1.2-.77-.67-1.16-1.89-1.16-3.64v-9.21l-4.65,1.08-.68-2.52,5.32-1.22Z"/>
      <path class="cls-1" d="m132.83,34.94l-3.57.06c-.16,0-.25-.02-.28-.06s-.04-.12-.04-.26v-2.14c0-.17.02-.27.06-.3.04-.03.12-.04.26-.04l3.57.06h7.14c-.04-1.03-.1-1.82-.18-2.35.89.08,1.53.15,1.91.19.7-.49,1.68-1.31,2.95-2.46h-6.89l-3.73.06c-.16,0-.25-.02-.28-.06-.03-.04-.04-.12-.04-.25v-2.12c0-.16.02-.25.05-.28s.12-.04.26-.04l3.73.06h8.33c.4,0,.69-.04.88-.11.14-.06.26-.08.36-.08.21,0,.6.29,1.16.87.57.62.86,1.05.86,1.3,0,.23-.15.42-.46.57-.25.13-.63.42-1.16.86-1.98,1.63-3.58,2.83-4.79,3.6v.25h7.16l3.54-.06c.17,0,.26.02.29.07.03.04.04.13.04.28v2.14c0,.15-.02.24-.05.27-.03.03-.13.05-.29.05l-3.54-.06h-7.16v1.45l.08,3.93c0,.92-.29,1.6-.86,2.02-.54.4-1.99.59-4.33.59-.45,0-.72-.05-.82-.14-.08-.08-.18-.33-.29-.75-.17-.7-.47-1.41-.9-2.12,1.1.11,2.11.17,3.03.17.45,0,.75-.07.9-.22.14-.13.21-.36.21-.69v-4.25h-7.14Zm16.42-14.81l3.73-.06c.17,0,.26.02.29.06.04.03.05.1.05.22l-.05,1.59v1.3l.05,3.25c0,.16-.02.25-.07.28-.04.03-.13.04-.28.04h-2.35c-.15,0-.24-.02-.26-.06s-.04-.12-.04-.26v-3.76h-17.93v3.76c0,.17-.02.27-.07.3-.04.03-.13.04-.28.04h-2.3c-.16,0-.25-.02-.29-.07-.03-.04-.04-.13-.04-.28l.06-3.25v-1.05l-.06-1.84c0-.13.02-.21.06-.24.04-.03.13-.04.28-.04l3.73.06h6.16v-.25c0-1.25-.06-2.14-.19-2.7.93,0,1.95.05,3.06.14.29.03.43.12.43.29,0,.09-.06.27-.18.54-.09.29-.14.85-.14,1.69v.29h6.62Z"/>
      <path class="cls-1" d="m170.39,35.64c.98,1.29,2.04,2.87,3.19,4.73l-2.79,1.78c-2.66-4.91-5.84-9.09-9.52-12.54l2.41-1.67c1.71,1.66,3.32,3.43,4.84,5.3,2.39-3.45,4.12-6.79,5.19-10.03h-14.51v-2.66h17.62l1,1.3c-2.07,5.19-4.54,9.79-7.43,13.79Z"/>
      <path class="cls-1" d="m180.31,25.31l2.54-.91c.92,1.94,1.7,4.13,2.32,6.57l-2.63.97c-.64-2.63-1.38-4.84-2.24-6.62Zm3.08,15.01c3.58-1.3,6.13-3.24,7.65-5.81,1.35-2.29,2.15-5.81,2.41-10.57l3.15.62c-.32,2.87-.72,5.17-1.2,6.9-.46,1.71-1.08,3.22-1.87,4.52-.98,1.62-2.17,2.96-3.57,4.01-1.21.9-2.79,1.76-4.73,2.56l-1.84-2.24Zm2.32-16.17l2.64-.8c.75,1.71,1.4,3.82,1.95,6.35l-2.64.91c-.56-2.73-1.21-4.88-1.95-6.46Z"/>
      <path class="cls-1" d="m208.07,23.04c-1.66.27-3.75.52-6.27.76l-1.25-2.52c5.62-.41,10.5-1.3,14.62-2.7l1.52,2.52c-1.57.49-3.4.95-5.49,1.4v4.87h7.14v2.64h-7.16c-.03,3.37-.75,6.02-2.17,7.95-1.25,1.7-3.21,3.1-5.88,4.22l-2.17-2.21c2.8-1.12,4.7-2.46,5.68-4.01.88-1.38,1.36-3.37,1.42-5.95h-8.67v-2.64h8.67v-4.33Z"/>
      <path class="cls-1" d="m222.99,20.35c2.62,1.35,4.99,2.84,7.11,4.48l-2.06,2.84c-2.13-1.94-4.45-3.56-6.94-4.88l1.89-2.43Zm13.71,1.22l2.97,1.54c-.84,5.23-2.6,9.37-5.28,12.42-2.74,3.13-6.57,5.32-11.51,6.58l-1.54-2.89c5.23-1.15,9.11-3.49,11.63-7,1.93-2.7,3.17-6.25,3.72-10.65Z"/>
      <path class="cls-1" d="m258.58,21.2c-.42-1.54-.96-2.97-1.62-4.29l1.81-.39c.66,1.26,1.28,2.86,1.84,4.79l-1.19.3,1.22,1.22c-.95,5.77-2.83,10.26-5.63,13.46-2.19,2.48-5.25,4.52-9.18,6.13l-1.84-2.3c4.06-1.56,7.15-3.72,9.28-6.47,1.97-2.55,3.3-5.84,3.97-9.85h-7.17c-1.32,2.78-3.11,5.33-5.38,7.65l-2.38-1.76c3.36-3.32,5.55-7.21,6.57-11.67l3.26.51c-.28.83-.59,1.72-.94,2.67h7.37Zm1.87-4.7l1.78-.43c.71,1.39,1.3,2.92,1.78,4.59l-1.84.54c-.5-1.84-1.07-3.41-1.73-4.7Z"/>
    </g>
  </g>
</svg>