<?xml version="1.0" encoding="UTF-8"?>
<svg id="Layer_2" data-name="Layer 2" xmlns="http://www.w3.org/2000/svg" viewBox="0 0 344.71 55.76">
  <defs>
    <style>
      .cls-1 {
        fill: #009fe3;
      }

      .cls-2 {
        fill: #646567;
      }
    </style>
  </defs>
  <g id="Layer_1-2" data-name="Layer 1">
    <path class="cls-1" d="m59.68,2.98l15.21,47.35c.83,2.58-1.1,5.22-3.81,5.22h-11.18c-1.74,0-3.28-1.13-3.81-2.79L41.05,5.41c-.82-2.58,1.11-5.21,3.81-5.21h11.01c1.74,0,3.28,1.12,3.81,2.78Z"/>
    <g>
      <path class="cls-2" d="m45.12,38L34.39,3.65c-.64-2.05-2.54-3.45-4.69-3.45-2.62,0-4.77,2.05-4.91,4.66l-1.31,25.68c-.05.91.06,1.83.33,2.7l5.82,19.46c.51,1.69,2.06,2.85,3.83,2.85h5.41c1.74,0,3.28-1.13,3.81-2.78l2.41-7.55c.75-2.35.76-4.87.02-7.22Z"/>
      <path class="cls-2" d="m45.12,38L34.39,3.65c-.64-2.05-2.54-3.45-4.69-3.45-2.62,0-4.77,2.05-4.91,4.66l-1.31,25.68c-.05.91.06,1.83.33,2.7l5.82,19.46c.51,1.69,2.06,2.85,3.83,2.85h5.41c1.74,0,3.28-1.13,3.81-2.78l2.41-7.55c.75-2.35.76-4.87.02-7.22Z"/>
    </g>
    <path class="cls-1" d="m18.88,0h11.01c2.7,0,4.62,2.61,3.82,5.19l-14.88,47.76c-.52,1.67-2.07,2.81-3.82,2.81H4c-2.7,0-4.62-2.61-3.82-5.19L15.06,2.81c.52-1.67,2.07-2.81,3.82-2.81Z"/>
    <g>
      <path class="cls-2" d="m90.43,19.21c-2.09,4.37-4.75,8.2-8,11.5l-3.45-2.55c4.87-4.81,8.04-10.46,9.53-16.93l4.73.74c-.64,1.85-1.06,3-1.24,3.45h12.66l1.06,1.48c-1.44,8.97-4.21,15.86-8.31,20.64-3.16,3.72-7.6,6.74-13.34,9.07l-2.67-3.33c5.83-2.25,10.32-5.45,13.46-9.61,2.86-3.8,4.78-8.62,5.76-14.46h-10.19Z"/>
      <path class="cls-2" d="m119.19,20.98v-9.37h4.51v8.33l14.8-3.41,2.41,2.97c-1.26,3.54-2.62,6.54-4.09,8.99-1.24,2.07-2.84,4.23-4.77,6.46l-3.73-2.39c3.76-4.13,6.15-7.98,7.18-11.54l-11.8,2.75v14.34c0,.86.12,1.46.36,1.81.29.43.87.72,1.73.88.83.15,2.19.22,4.09.22,3.69,0,7-.18,9.93-.54v4.45c-3.5.19-7.09.28-10.75.28-4.13,0-6.86-.58-8.18-1.75-1.12-.98-1.69-2.74-1.69-5.28v-13.36l-6.74,1.57-.98-3.65,7.72-1.77Z"/>
      <path class="cls-2" d="m154.43,35.76l-5.18.08c-.23,0-.36-.03-.4-.08s-.06-.18-.06-.38v-3.11c0-.24.03-.39.08-.44.05-.04.18-.06.38-.06l5.18.08h10.35c-.05-1.5-.14-2.63-.26-3.41,1.3.12,2.22.21,2.77.28,1.02-.71,2.44-1.9,4.27-3.57h-9.99l-5.42.08c-.23,0-.36-.03-.4-.08-.04-.05-.06-.17-.06-.36v-3.07c0-.23.03-.36.08-.4s.18-.06.38-.06l5.42.08h12.08c.58,0,1-.05,1.28-.16.2-.08.37-.12.52-.12.31,0,.87.42,1.69,1.26.83.9,1.24,1.52,1.24,1.89,0,.33-.22.61-.66.82-.36.19-.92.6-1.69,1.24-2.88,2.37-5.19,4.11-6.94,5.22v.36h10.39l5.14-.08c.24,0,.38.03.42.1.04.05.06.19.06.4v3.11c0,.21-.02.34-.07.39-.05.05-.18.07-.41.07l-5.14-.08h-10.39v2.11l.12,5.7c0,1.34-.42,2.31-1.24,2.93-.79.58-2.88.86-6.28.86-.65,0-1.05-.07-1.18-.2-.12-.12-.26-.48-.42-1.08-.24-1.02-.68-2.04-1.31-3.07,1.59.16,3.06.24,4.39.24.65,0,1.09-.11,1.31-.32.2-.19.3-.52.3-1v-6.16h-10.35Zm23.81-21.49l5.42-.08c.24,0,.38.03.42.08.05.04.08.15.08.32l-.08,2.31v1.89l.08,4.71c0,.23-.03.36-.1.4-.05.04-.19.06-.4.06h-3.41c-.22,0-.34-.03-.38-.08s-.06-.18-.06-.38v-5.46h-26v5.46c0,.24-.03.39-.1.44-.05.04-.19.06-.4.06h-3.33c-.23,0-.37-.03-.42-.1-.04-.05-.06-.19-.06-.4l.08-4.71v-1.52l-.08-2.67c0-.19.03-.3.08-.34.05-.04.19-.06.4-.06l5.42.08h8.93v-.36c0-1.81-.09-3.11-.28-3.91,1.35,0,2.83.07,4.43.2.41.04.62.18.62.42,0,.13-.08.39-.26.78-.13.41-.2,1.23-.2,2.45v.42h9.61Z"/>
      <path class="cls-2" d="m208.91,36.79c1.42,1.87,2.96,4.16,4.63,6.86l-4.05,2.59c-3.86-7.11-8.46-13.18-13.8-18.2l3.49-2.43c2.47,2.41,4.81,4.97,7.02,7.68,3.46-5,5.97-9.85,7.52-14.54h-21.04v-3.85h25.56l1.44,1.89c-3,7.53-6.59,14.2-10.77,20Z"/>
      <path class="cls-2" d="m223.3,21.8l3.69-1.32c1.34,2.81,2.46,5.99,3.37,9.53l-3.81,1.4c-.92-3.81-2.01-7.01-3.25-9.61Zm4.47,21.77c5.19-1.89,8.89-4.69,11.09-8.42,1.95-3.32,3.12-8.43,3.49-15.33l4.57.9c-.47,4.16-1.05,7.5-1.75,10.01-.67,2.49-1.57,4.67-2.71,6.56-1.42,2.35-3.14,4.29-5.18,5.82-1.75,1.31-4.04,2.55-6.86,3.71l-2.67-3.25Zm3.37-23.45l3.83-1.16c1.08,2.47,2.03,5.54,2.83,9.21l-3.83,1.32c-.82-3.96-1.76-7.08-2.83-9.37Z"/>
      <path class="cls-2" d="m263.56,18.51c-2.41.39-5.44.76-9.09,1.1l-1.81-3.65c8.16-.59,15.23-1.89,21.21-3.91l2.21,3.65c-2.27.71-4.93,1.38-7.96,2.03v7.06h10.35v3.83h-10.39c-.04,4.88-1.09,8.73-3.15,11.54-1.82,2.46-4.66,4.5-8.53,6.12l-3.15-3.21c4.07-1.63,6.81-3.57,8.25-5.82,1.28-2.01,1.97-4.88,2.07-8.63h-12.58v-3.83h12.58v-6.28Z"/>
      <path class="cls-2" d="m285.19,14.6c3.8,1.95,7.24,4.12,10.31,6.5l-2.99,4.11c-3.09-2.81-6.45-5.17-10.07-7.08l2.75-3.53Zm19.88,1.76l4.31,2.23c-1.22,7.58-3.77,13.59-7.66,18.01-3.97,4.53-9.54,7.72-16.69,9.55l-2.23-4.19c7.58-1.67,13.21-5.06,16.87-10.15,2.79-3.92,4.59-9.07,5.4-15.45Z"/>
      <path class="cls-2" d="m336.83,15.84c-.6-2.23-1.39-4.31-2.35-6.22l2.63-.56c.96,1.83,1.85,4.15,2.67,6.94l-1.73.44,1.76,1.76c-1.38,8.37-4.1,14.88-8.16,19.52-3.17,3.6-7.61,6.56-13.32,8.89l-2.67-3.33c5.88-2.26,10.37-5.39,13.46-9.39,2.86-3.7,4.78-8.47,5.76-14.28h-10.39c-1.91,4.03-4.51,7.72-7.8,11.09l-3.45-2.55c4.87-4.81,8.04-10.46,9.53-16.93l4.74.74c-.4,1.2-.86,2.49-1.36,3.87h10.69Zm2.71-6.82l2.59-.62c1.03,2.02,1.89,4.24,2.59,6.66l-2.67.78c-.72-2.67-1.56-4.95-2.51-6.82Z"/>
    </g>
  </g>
</svg>