<?xml version="1.0" encoding="UTF-8"?>
<svg id="Layer_2" data-name="Layer 2" xmlns="http://www.w3.org/2000/svg" xmlns:xlink="http://www.w3.org/1999/xlink" viewBox="0 0 345.94 55.76">
  <defs>
    <style>
      .cls-1 {
        fill: #fff;
      }

      .cls-2 {
        fill: url(#linear-gradient);
      }

      .cls-3 {
        fill: #ef305e;
      }
    </style>
    <linearGradient id="linear-gradient" x1="27.05" y1="258.08" x2="38.55" y2="255.08" gradientTransform="translate(0 284.76) scale(1 -1)" gradientUnits="userSpaceOnUse">
      <stop offset="0" stop-color="#000" stop-opacity=".25"/>
      <stop offset=".91" stop-color="#fff" stop-opacity="0"/>
    </linearGradient>
  </defs>
  <g id="Layer_1-2" data-name="Layer 1">
    <path class="cls-3" d="m59.68,2.98l15.21,47.35c.83,2.58-1.1,5.22-3.81,5.22h-11.18c-1.74,0-3.28-1.13-3.81-2.79L41.05,5.41c-.82-2.58,1.11-5.21,3.81-5.21h11.01c1.74,0,3.28,1.12,3.81,2.78Z"/>
    <g>
      <path class="cls-1" d="m45.12,38L34.39,3.65c-.64-2.05-2.54-3.45-4.69-3.45-2.62,0-4.77,2.05-4.91,4.66l-1.31,25.68c-.05.91.06,1.83.33,2.7l5.82,19.46c.51,1.69,2.06,2.85,3.83,2.85h5.41c1.74,0,3.28-1.13,3.81-2.78l2.41-7.55c.75-2.35.76-4.87.02-7.22Z"/>
      <path class="cls-2" d="m45.12,38L34.39,3.65c-.64-2.05-2.54-3.45-4.69-3.45-2.62,0-4.77,2.05-4.91,4.66l-1.31,25.68c-.05.91.06,1.83.33,2.7l5.82,19.46c.51,1.69,2.06,2.85,3.83,2.85h5.41c1.74,0,3.28-1.13,3.81-2.78l2.41-7.55c.75-2.35.76-4.87.02-7.22Z"/>
    </g>
    <path class="cls-3" d="m18.88,0h11.01c2.7,0,4.62,2.61,3.82,5.19l-14.88,47.76c-.52,1.67-2.07,2.81-3.82,2.81H4c-2.7,0-4.62-2.61-3.82-5.19L15.06,2.81c.52-1.67,2.07-2.81,3.82-2.81Z"/>
    <g>
      <g>
        <path class="cls-1" d="m80.58,43.06l.64-.25c5.72-2.2,10.17-5.38,13.24-9.44,2.7-3.59,4.57-8.18,5.56-13.66h-9.28c-2.08,4.29-4.76,8.1-7.96,11.35l-.3.31-4.27-3.15.42-.41c4.78-4.73,7.94-10.34,9.39-16.69l.1-.45,5.79.91-.2.57c-.44,1.25-.76,2.17-.99,2.79h12.19l1.33,1.86-.03.2c-1.45,9.03-4.29,16.05-8.42,20.89-3.19,3.76-7.75,6.86-13.53,9.21l-.35.14-3.33-4.15Z"/>
        <path class="cls-1" d="m88.5,11.23l4.73.74c-.64,1.85-1.06,3-1.24,3.45h12.66l1.06,1.48c-1.44,8.97-4.21,15.86-8.31,20.64-3.16,3.72-7.6,6.74-13.34,9.07l-2.67-3.33c5.83-2.25,10.32-5.45,13.46-9.61,2.86-3.8,4.78-8.62,5.76-14.46h-10.19c-2.09,4.37-4.75,8.2-8,11.5l-3.45-2.55c4.87-4.81,8.04-10.46,9.53-16.93m-.77-1.13l-.21.91c-1.43,6.25-4.55,11.79-9.26,16.44l-.83.82.94.69,3.45,2.55.7.51.61-.62c3.17-3.21,5.83-6.98,7.92-11.2h8.37c-1,5.14-2.8,9.47-5.36,12.86-3.01,3.99-7.39,7.11-13.02,9.28l-1.28.49.86,1.07,2.67,3.33.47.58.69-.28c5.86-2.38,10.48-5.52,13.73-9.35,4.19-4.9,7.06-12.01,8.53-21.13l.07-.41-.24-.33-1.06-1.48-.3-.42h-11.73c.2-.56.45-1.26.75-2.12l.39-1.13-1.18-.19-4.73-.74-.92-.14h0Z"/>
      </g>
      <g>
        <path class="cls-1" d="m129.06,45.71c-4.3,0-7.08-.61-8.52-1.87-1.23-1.07-1.86-2.97-1.86-5.65v-12.73l-6.6,1.53-1.24-4.62,7.84-1.79v-9.47h5.51v8.2l14.5-3.34,2.78,3.43-.09.26c-1.26,3.56-2.66,6.62-4.14,9.08-1.25,2.09-2.88,4.28-4.83,6.53l-.28.33-4.59-2.94.4-.44c3.4-3.74,5.68-7.27,6.81-10.51l-10.55,2.46v13.95c0,.98.17,1.37.27,1.52.21.31.7.54,1.41.67.79.14,2.14.21,4,.21,3.65,0,6.97-.18,9.87-.54l.56-.07v5.49l-.47.03c-3.48.19-7.11.28-10.78.28Z"/>
        <path class="cls-1" d="m123.7,11.61v8.33l14.8-3.41,2.41,2.97c-1.26,3.54-2.62,6.54-4.09,8.99-1.24,2.07-2.84,4.23-4.77,6.46l-3.73-2.39c3.76-4.13,6.15-7.98,7.18-11.54l-11.8,2.75v14.34c0,.86.12,1.46.36,1.81.29.43.87.72,1.73.88.83.15,2.19.22,4.09.22,3.69,0,7-.18,9.93-.54v4.45c-3.5.19-7.09.28-10.75.28-4.13,0-6.86-.58-8.18-1.75-1.12-.98-1.69-2.74-1.69-5.28v-13.36l-6.74,1.57-.98-3.65,7.72-1.77v-9.37h4.51m1-1h-6.51v9.57l-6.95,1.59-1.01.23.27,1,.98,3.65.25.93.94-.22,5.51-1.28v12.1c0,2.87.66,4.84,2.03,6.03,1.52,1.34,4.42,1.99,8.84,1.99,3.67,0,7.31-.1,10.81-.28l.95-.05v-6.53l-1.12.14c-2.88.35-6.18.53-9.81.53-1.83,0-3.15-.07-3.92-.21-.81-.15-1.03-.39-1.08-.46-.02-.03-.19-.3-.19-1.24v-13.55l9.26-2.16c-1.19,2.94-3.33,6.12-6.38,9.48l-.8.88,1,.64,3.73,2.39.73.47.57-.65c1.97-2.27,3.61-4.49,4.88-6.6,1.5-2.49,2.9-5.58,4.18-9.17l.19-.53-.35-.44-2.41-2.97-.39-.48-.61.14-13.58,3.13v-8.07h0Z"/>
      </g>
      <g>
        <path class="cls-1" d="m161.69,47.86c-.84,0-1.29-.1-1.54-.35-.14-.14-.31-.4-.55-1.31-.23-.97-.65-1.95-1.25-2.94l-.52-.86,1,.1c1.57.16,3.03.24,4.34.24.75,0,.93-.16.95-.18.04-.04.15-.18.15-.65v-5.66h-9.85l-5.17.08c-.31,0-.62-.03-.81-.28-.12-.16-.16-.35-.16-.68v-3.11c0-.29.03-.59.23-.79.2-.16.4-.21.74-.21l5.18.08h9.82c-.05-1.21-.13-2.17-.23-2.83l-.1-.63.64.06c1.16.11,2.03.19,2.59.26.79-.56,1.83-1.42,3.1-2.55h-8.69l-5.41.08c-.3,0-.63-.03-.81-.29-.11-.14-.16-.34-.16-.66v-3.07c0-.31.03-.62.28-.8.15-.11.35-.16.68-.16l5.42.08h12.07c.64,0,.95-.07,1.11-.13.25-.1.49-.15.7-.15.35,0,.84.17,2.04,1.42,1.23,1.33,1.38,1.89,1.38,2.23,0,.37-.16.89-.95,1.27-.21.11-.67.41-1.58,1.18-2.44,2.01-4.5,3.58-6.14,4.69h9.27s5.13-.08,5.14-.08c.21,0,.65,0,.85.35.08.11.13.31.13.66v3.11c0,.27-.03.55-.21.74-.2.2-.49.23-.78.23l-5.14-.08h-9.88v1.61l.12,5.69c0,1.51-.49,2.63-1.45,3.34-.57.41-1.87.96-6.58.96Zm-11.71-23.35c-.27,0-.61-.03-.81-.29-.12-.16-.17-.37-.17-.71l.08-4.72v-1.52l-.08-2.65c0-.26.03-.57.28-.76.15-.11.36-.16.7-.16l5.42.08h8.42c0-1.69-.09-2.92-.27-3.66l-.14-.61h.63c1.35,0,2.86.07,4.47.2.97.1,1.08.67,1.08.92,0,.15-.04.39-.31.99-.06.2-.15.78-.16,2.16h9.11l5.41-.08c.3,0,.59.03.78.22.23.21.23.55.23.68l-.08,2.32v1.87l.08,4.71c0,.2,0,.64-.35.84-.1.08-.31.13-.66.13h-3.41c-.28,0-.6-.03-.78-.28-.11-.15-.16-.35-.16-.68v-4.96h-25v4.96c0,.28-.03.62-.29.83-.17.13-.37.17-.72.17h-3.33Z"/>
        <path class="cls-1" d="m164.04,10c1.35,0,2.83.07,4.43.2.41.04.62.18.62.42,0,.13-.08.39-.26.78-.13.41-.2,1.23-.2,2.45v.42h9.61l5.42-.08c.24,0,.38.03.42.08.05.04.08.15.08.32l-.08,2.31v1.89l.08,4.71c0,.23-.03.36-.1.4-.05.04-.19.06-.4.06h-3.41c-.22,0-.34-.03-.38-.08-.04-.05-.06-.18-.06-.38v-5.46h-26v5.46c0,.24-.03.39-.1.44-.05.04-.19.06-.4.06h-3.33c-.23,0-.37-.03-.42-.1-.04-.05-.06-.19-.06-.4l.08-4.71v-1.52l-.08-2.67c0-.19.03-.3.08-.34.05-.04.19-.06.4-.06l5.42.08h8.93v-.36c0-1.81-.09-3.11-.28-3.91m11.41,11.05c.31,0,.87.42,1.69,1.26.83.9,1.24,1.52,1.24,1.89,0,.33-.22.61-.66.82-.36.19-.92.6-1.69,1.24-2.88,2.37-5.19,4.11-6.94,5.22v.36h10.39l5.14-.08c.24,0,.38.03.42.1.04.05.06.19.06.4v3.11c0,.21-.02.34-.07.39-.05.05-.18.07-.41.07l-5.14-.08h-10.39v2.11l.12,5.7c0,1.34-.42,2.31-1.24,2.93-.79.58-2.88.86-6.28.86-.65,0-1.05-.07-1.18-.2-.12-.12-.26-.48-.42-1.08-.24-1.02-.68-2.04-1.31-3.07,1.59.16,3.06.24,4.39.24.65,0,1.09-.11,1.31-.32.2-.19.3-.52.3-1v-6.16h-10.35l-5.18.08c-.23,0-.36-.03-.4-.08-.04-.05-.06-.18-.06-.38v-3.11c0-.24.03-.39.08-.44.05-.04.18-.06.38-.06l5.18.08h10.35c-.05-1.5-.14-2.63-.26-3.41,1.3.12,2.22.21,2.77.28,1.02-.71,2.44-1.9,4.27-3.57h-9.99l-5.42.08c-.23,0-.36-.03-.4-.08-.04-.05-.06-.17-.06-.36v-3.07c0-.23.03-.36.08-.4.05-.04.18-.06.38-.06l5.42.08h12.08c.58,0,1-.05,1.28-.16.2-.08.37-.12.52-.12m-11.41-12.05h-1.26l.29,1.23c.15.63.23,1.65.25,3.05h-7.92l-5.4-.08h0c-.34,0-.71.03-1.01.26-.48.36-.48.95-.48,1.14l.08,2.7v1.49s-.08,4.7-.08,4.7c0,.36.03.71.26,1.02.4.5,1.02.5,1.22.5h3.33c.32,0,.69-.03.99-.26.2-.16.32-.35.39-.54v.58c0,.29.03.65.26.96.36.48.95.48,1.2.48l5.43-.08h7.34c-.74.63-1.38,1.15-1.91,1.53-.57-.06-1.38-.14-2.41-.24l-1.28-.12.19,1.27c.08.55.15,1.31.2,2.26h-9.31l-5.16-.08h0c-.33,0-.69.03-1,.26l-.06.04-.05.05c-.32.33-.37.76-.37,1.14v3.11c0,.31.03.68.26.98.36.48.95.48,1.2.48l5.19-.08h9.34v5.16c0,.13-.01.22-.02.27-.09.02-.27.05-.59.05-1.29,0-2.74-.08-4.29-.24l-2-.2,1.05,1.72c.57.94.97,1.87,1.19,2.78.26.99.46,1.33.69,1.56.36.36.89.49,1.89.49,4.8,0,6.19-.56,6.87-1.05,1.1-.82,1.66-2.07,1.66-3.74l-.12-5.72v-1.08h9.39l5.12.08h0c.38,0,.8-.04,1.12-.35.33-.34.37-.75.37-1.11v-3.11c0-.31-.03-.65-.22-.95-.36-.55-1.03-.55-1.26-.55l-5.15.08h-7.67c1.39-1.01,3-2.27,4.87-3.8.93-.78,1.35-1.04,1.51-1.13.7-.34,1-.8,1.12-1.2.34.25.76.25.94.25h3.41c.32,0,.66-.03.96-.23.55-.36.55-1.01.55-1.23l-.08-4.73v-1.87s.08-2.27.08-2.27c0-.48-.13-.83-.38-1.07-.36-.37-.89-.37-1.12-.37l-5.43.08h-8.59c.02-.96.09-1.36.13-1.52.23-.51.32-.84.32-1.13,0-.21-.07-1.28-1.52-1.42-1.65-.14-3.17-.21-4.53-.21h0Zm-9.23,10.04h24v3.72c-.23-.33-.54-.7-.93-1.13-1.11-1.14-1.78-1.58-2.42-1.58-.28,0-.57.06-.89.19-.04.02-.28.09-.91.09h-12.08l-5.4-.08h0c-.33,0-.69.03-1,.26-.18.14-.3.31-.37.48v-1.95h0Z"/>
      </g>
      <g>
        <path class="cls-1" d="m209.05,46.47c-3.82-7.04-8.43-13.11-13.71-18.07l-.45-.42,4.34-3.01.29.29c2.32,2.26,4.55,4.69,6.64,7.21,3.07-4.52,5.37-8.96,6.86-13.21h-20.85v-4.85h26.3l1.77,2.31-.1.26c-2.95,7.4-6.52,14.07-10.62,19.81,1.37,1.83,2.86,4.05,4.44,6.6l.26.42-4.92,3.14-.26-.47Z"/>
        <path class="cls-1" d="m218.23,14.9l1.44,1.89c-3,7.53-6.59,14.2-10.77,20,1.42,1.87,2.96,4.16,4.63,6.86l-4.05,2.59c-3.86-7.11-8.46-13.18-13.8-18.2l3.49-2.43c2.47,2.41,4.81,4.97,7.02,7.68,3.46-5,5.97-9.85,7.52-14.54h-21.04v-3.85h25.56m.49-1h-27.05v5.85h20.64c-1.41,3.84-3.49,7.82-6.19,11.88-1.97-2.35-4.07-4.62-6.25-6.73l-.59-.58-.68.47-3.49,2.43-1.01.7.9.85c5.23,4.92,9.81,10.96,13.61,17.94l.51.94.9-.58,4.05-2.59.83-.53-.52-.84c-1.51-2.44-2.93-4.57-4.25-6.35,4.03-5.71,7.55-12.3,10.46-19.62l.21-.53-.35-.45-1.44-1.89-.3-.39h0Z"/>
      </g>
      <g>
        <path class="cls-1" d="m226.94,43.34l.66-.24c5.05-1.84,8.7-4.6,10.83-8.21,1.9-3.23,3.05-8.31,3.42-15.1l.03-.57,5.59,1.1-.05.46c-.47,4.16-1.06,7.56-1.76,10.09-.68,2.52-1.61,4.77-2.76,6.69-1.44,2.4-3.23,4.4-5.3,5.96-1.78,1.33-4.12,2.6-6.97,3.77l-.34.14-3.35-4.08Zm-.88-11.81c-.91-3.76-1.99-6.96-3.21-9.51l-.24-.5,4.64-1.66.19.41c1.34,2.82,2.49,6.06,3.4,9.62l.11.44-4.76,1.75-.13-.55Zm7.42-1.94c-.8-3.9-1.74-7.02-2.79-9.26l-.24-.52,4.81-1.46.18.41c1.09,2.49,2.05,5.62,2.86,9.3l.1.43-4.79,1.66-.11-.56Z"/>
        <path class="cls-1" d="m234.98,18.95c1.08,2.47,2.03,5.54,2.83,9.21l-3.83,1.32c-.82-3.96-1.76-7.08-2.83-9.37l3.83-1.16m7.38.86l4.57.9c-.47,4.16-1.05,7.5-1.75,10.01-.67,2.49-1.57,4.67-2.71,6.56-1.42,2.35-3.14,4.29-5.18,5.82-1.75,1.31-4.04,2.55-6.86,3.71l-2.67-3.25c5.19-1.89,8.89-4.69,11.09-8.42,1.95-3.32,3.12-8.43,3.49-15.33m-15.37.66c1.34,2.81,2.46,5.99,3.37,9.53l-3.81,1.4c-.92-3.81-2.01-7.01-3.25-9.61l3.69-1.32m8.54-2.74l-.85.26-3.83,1.16-1.1.34.49,1.05c1.03,2.2,1.96,5.28,2.75,9.15l.23,1.12,1.08-.37,3.83-1.32.84-.29-.19-.87c-.81-3.71-1.79-6.87-2.89-9.39l-.36-.81h0Zm5.89.87l-.06,1.15c-.36,6.71-1.49,11.71-3.35,14.87-2.07,3.51-5.63,6.2-10.57,7.99l-1.33.48.9,1.09,2.67,3.25.47.57.68-.28c2.88-1.19,5.27-2.48,7.08-3.83,2.13-1.6,3.96-3.65,5.43-6.1,1.18-1.95,2.13-4.25,2.82-6.82.7-2.55,1.3-5.97,1.77-10.16l.1-.91-.9-.18-4.57-.9-1.13-.22h0Zm-13.92.62l-.85.31-3.69,1.32-1.04.37.48,1c1.21,2.52,2.28,5.69,3.18,9.41l.26,1.09,1.05-.39,3.81-1.4.85-.31-.22-.87c-.92-3.59-2.08-6.86-3.44-9.71l-.39-.82h0Z"/>
      </g>
      <g>
        <path class="cls-1" d="m252.36,42.88l.7-.28c3.95-1.59,6.64-3.48,8.01-5.62,1.17-1.83,1.83-4.47,1.97-7.86h-12.56v-4.83h12.58v-5.19c-2.31.35-5.18.7-8.54,1.02l-.34.03-2.29-4.63.74-.05c8.08-.58,15.17-1.89,21.08-3.89l.38-.13,2.74,4.54-.61.19c-2.17.68-4.73,1.33-7.61,1.95v6.16h10.35v4.83h-10.4c-.11,4.74-1.2,8.55-3.24,11.33-1.87,2.52-4.8,4.64-8.74,6.28l-.31.13-3.91-3.99Z"/>
        <path class="cls-1" d="m273.87,12.05l2.21,3.65c-2.27.71-4.93,1.38-7.96,2.03v7.06h10.35v3.83h-10.39c-.04,4.88-1.09,8.73-3.15,11.54-1.82,2.46-4.66,4.5-8.53,6.12l-3.15-3.21c4.07-1.63,6.81-3.57,8.25-5.82,1.28-2.01,1.97-4.88,2.07-8.63h-12.58v-3.83h12.58v-6.28c-2.41.39-5.44.76-9.09,1.1l-1.81-3.65c8.16-.59,15.23-1.89,21.21-3.91m.44-1.2l-.76.26c-5.87,1.98-12.92,3.28-20.96,3.86l-1.48.11.66,1.33,1.81,3.65.31.62.69-.07c3.1-.29,5.78-.61,7.99-.93v4.11h-12.58v5.83h12.54c-.18,3.05-.8,5.43-1.87,7.09-1.31,2.06-3.93,3.88-7.78,5.43l-1.39.56,1.05,1.07,3.15,3.21.47.48.63-.26c4.02-1.68,7.02-3.85,8.94-6.45,2.03-2.77,3.15-6.51,3.32-11.13h10.41v-5.83h-10.35v-5.25c2.73-.6,5.17-1.23,7.26-1.88l1.22-.38-.66-1.09-2.21-3.65-.42-.69h0Z"/>
      </g>
      <g>
        <path class="cls-1" d="m282.06,41.61l.64-.14c7.42-1.64,13-4.99,16.57-9.95,2.73-3.83,4.52-8.95,5.31-15.22l.09-.71,5.27,2.72-.06.36c-1.23,7.64-3.85,13.79-7.78,18.27-4.02,4.59-9.72,7.85-16.94,9.7l-.38.1-2.72-5.12Zm10.12-16.03c-3.04-2.77-6.4-5.12-9.97-7.01l-.53-.28,3.37-4.33.37.19c3.81,1.96,7.3,4.16,10.39,6.55l.38.3-3.6,4.96-.41-.38Z"/>
        <path class="cls-1" d="m285.19,14.6c3.8,1.95,7.24,4.12,10.31,6.5l-2.99,4.11c-3.09-2.81-6.45-5.17-10.07-7.08l2.75-3.53m19.88,1.76l4.31,2.23c-1.22,7.58-3.77,13.59-7.66,18.01-3.97,4.53-9.54,7.72-16.69,9.55l-2.23-4.19c7.58-1.67,13.21-5.06,16.87-10.15,2.79-3.92,4.59-9.07,5.4-15.45m-20.16-3.03l-.51.65-2.75,3.53-.73.94,1.06.56c3.54,1.87,6.85,4.2,9.87,6.94l.83.75.66-.9,2.99-4.11.57-.78-.77-.59c-3.11-2.41-6.63-4.63-10.47-6.6l-.74-.38h0Zm19.35,1.49l-.18,1.42c-.78,6.18-2.53,11.23-5.22,14.99-3.5,4.86-8.97,8.15-16.27,9.75l-1.29.28.62,1.16,2.23,4.19.37.69.76-.2c7.32-1.87,13.11-5.19,17.19-9.86,4-4.55,6.66-10.78,7.9-18.52l.11-.71-.64-.33-4.31-2.23-1.27-.66h0Z"/>
      </g>
      <g>
        <path class="cls-1" d="m314.84,43.06l.64-.25c5.77-2.22,10.23-5.32,13.24-9.23,2.7-3.5,4.57-8.03,5.56-13.48h-9.48c-1.92,3.95-4.52,7.63-7.76,10.94l-.3.31-4.27-3.15.42-.41c4.78-4.72,7.94-10.34,9.39-16.69l.1-.45,5.78.91-.19.56c-.34,1.01-.71,2.08-1.12,3.21h9.32c-.57-1.95-1.28-3.8-2.13-5.49l-.29-.58,3.63-.78.18.34c.97,1.85,1.88,4.22,2.71,7.03l.15.5-1.38.35,1.33,1.33-.04.25c-1.39,8.43-4.17,15.08-8.28,19.77-3.21,3.64-7.75,6.67-13.51,9.02l-.35.14-3.33-4.16Zm26.71-27.09c-.71-2.63-1.54-4.89-2.47-6.73l-.29-.56,3.59-.86.18.35c1.04,2.04,1.92,4.31,2.62,6.75l.14.48-3.64,1.07-.13-.49Z"/>
        <path class="cls-1" d="m342.12,8.4c1.03,2.02,1.89,4.24,2.59,6.66l-2.67.78c-.72-2.67-1.56-4.95-2.51-6.82l2.59-.62m-5.02.66c.96,1.83,1.85,4.15,2.67,6.94l-1.73.44,1.76,1.76c-1.38,8.37-4.1,14.88-8.16,19.52-3.17,3.6-7.61,6.56-13.32,8.89l-2.67-3.33c5.88-2.26,10.37-5.39,13.46-9.39,2.86-3.7,4.78-8.47,5.76-14.28h-10.39c-1.91,4.03-4.51,7.72-7.8,11.09l-3.45-2.55c4.87-4.81,8.04-10.46,9.53-16.93l4.74.74c-.4,1.2-.86,2.49-1.36,3.87h10.69c-.6-2.23-1.39-4.31-2.35-6.22l2.63-.56m5.55-1.82l-.77.18-2.59.62-1.23.3.57,1.13c.91,1.8,1.73,4.03,2.43,6.63l.27.99.98-.29,2.67-.78.95-.28-.27-.96c-.71-2.47-1.6-4.77-2.66-6.84l-.36-.7h0Zm-5.02.68l-.74.16-2.63.56-1.27.27.58,1.16c.75,1.48,1.39,3.08,1.91,4.77h-7.93c.32-.89.62-1.75.88-2.56l.37-1.12-1.17-.18-4.74-.74-.92-.14-.21.91c-1.43,6.26-4.55,11.79-9.26,16.44l-.83.82.94.69,3.45,2.55.7.52.61-.62c3.2-3.27,5.79-6.9,7.71-10.79h8.57c-1,5.11-2.8,9.37-5.35,12.67-2.96,3.83-7.34,6.88-13.03,9.07l-1.28.49.86,1.07,2.67,3.33.47.58.69-.28c5.83-2.38,10.44-5.45,13.69-9.15,4.17-4.76,7-11.5,8.4-20.02l.08-.51-.36-.36-.52-.52h.02s1-.26,1-.26l-.29-.99c-.83-2.85-1.75-5.24-2.74-7.13l-.35-.67h0Z"/>
      </g>
    </g>
  </g>
</svg>